<svg viewBox="0 0 259 252" xmlns="http://www.w3.org/2000/svg" xmlns:xlink="http://www.w3.org/1999/xlink"><style>:root&gt;svg{display:none}:root&gt;svg:target{display:block}</style><svg viewBox="0 0 34.01 34.01" id="footerFacebook" xmlns="http://www.w3.org/2000/svg"><path d="M17 34.01c9.4 0 17.01-7.61 17.01-17.01C34.01 7.61 26.4 0 17 0 7.61 0 0 7.61 0 17c0 9.4 7.61 17.01 17 17.01" fill="#434748"/><path d="M12.9 14.12h1.76v-1.71c0-.75.02-1.91.56-2.63.58-.76 1.37-1.28 2.73-1.28 2.22 0 3.16.31 3.16.31l-.44 2.61s-.74-.21-1.42-.21c-.68 0-1.3.24-1.3.93v1.98h2.81l-.2 2.55h-2.61v8.84h-3.29v-8.84H12.9z" fill="#fff"/></svg><svg viewBox="0 0 34.01 34.01" id="footerGoogle" xmlns="http://www.w3.org/2000/svg"><path d="M17 34.01c9.4 0 17.01-7.61 17.01-17.01C34.01 7.61 26.4 0 17 0 7.61 0 0 7.61 0 17c0 9.4 7.61 17.01 17 17.01" fill="#434748"/><path d="M25.2 15.76h-2.05v-2.05H21.5v2.05h-2.05v1.65h2.05v2.05h1.65v-2.05h2.05zm-7.67 2.48c-.47-.33-1.38-1.15-1.38-1.63 0-.57.16-.85 1.01-1.51.87-.68 1.49-1.64 1.49-2.75 0-1.33-.59-2.62-1.7-3.04h1.67l1.18-.86h-5.27c-2.36 0-4.58 1.79-4.58 3.87 0 2.11 1.61 3.82 4.01 3.82.17 0 .33 0 .49-.01-.16.3-.27.63-.27.98 0 .59.32 1.07.72 1.46-.31 0-.6.01-.92.01-2.92 0-5.17 1.86-5.17 3.79 0 1.9 2.47 3.09 5.39 3.09 3.33 0 5.18-1.89 5.18-3.79 0-1.53-.45-2.44-1.85-3.43m-2.81-2.63c-1.36-.05-2.65-1.52-2.88-3.3-.23-1.79.68-3.15 2.03-3.11 1.36.04 2.65 1.47 2.88 3.25.24 1.78-.67 3.2-2.03 3.16m-.53 9.01c-2.02 0-3.48-1.28-3.48-2.82 0-1.5 1.81-2.76 3.83-2.74.47.01.91.09 1.31.21 1.1.77 1.89 1.2 2.11 2.07.04.18.06.36.06.54 0 1.54-.99 2.74-3.83 2.74" fill="#fff"/></svg><svg viewBox="0 0 34.01 34.01" id="footerPinterest" xmlns="http://www.w3.org/2000/svg"><path d="M17 34.01c9.4 0 17.01-7.61 17.01-17.01C34.01 7.61 26.4 0 17 0 7.61 0 0 7.61 0 17c0 9.4 7.61 17.01 17 17.01" fill="#434748"/><path d="M17 8.45c-4.69 0-8.5 3.81-8.5 8.51 0 3.48 2.09 6.47 5.09 7.79-.02-.6 0-1.31.15-1.96.16-.69 1.09-4.63 1.09-4.63s-.27-.54-.27-1.35c0-1.26.73-2.2 1.64-2.2.77 0 1.15.58 1.15 1.28 0 .78-.5 1.94-.75 3.02-.22.9.45 1.63 1.34 1.63 1.61 0 2.69-2.06 2.69-4.52 0-1.86-1.25-3.25-3.53-3.25-2.58 0-4.19 1.92-4.19 4.07 0 .74.22 1.26.56 1.67.16.18.18.26.12.47-.04.16-.13.53-.17.68-.06.22-.23.29-.43.21-1.18-.48-1.74-1.78-1.74-3.24 0-2.42 2.04-5.32 6.08-5.32 3.25 0 5.38 2.35 5.38 4.87 0 3.34-1.85 5.83-4.59 5.83-.91 0-1.78-.49-2.07-1.06 0 0-.5 1.96-.6 2.34-.18.66-.53 1.31-.86 1.82.77.23 1.58.35 2.41.35 4.7 0 8.51-3.81 8.51-8.5 0-4.7-3.81-8.51-8.51-8.51" fill="#fff"/></svg><svg viewBox="0 0 34.01 34.01" id="footerT" xmlns="http://www.w3.org/2000/svg"><path d="M17 34.01c9.4 0 17.01-7.61 17.01-17.01C34.01 7.61 26.4 0 17 0 7.61 0 0 7.61 0 17c0 9.4 7.61 17.01 17 17.01" fill="#434748"/><path d="M17.19 8.5v4.3h4.03v2.67h-4.03v4.36c0 .98.05 1.62.15 1.9.11.28.3.5.59.67.37.22.8.34 1.29.34.86 0 1.72-.28 2.57-.84v2.68c-.73.34-1.39.58-1.98.72-.59.14-1.22.21-1.91.21-.77 0-1.46-.1-2.06-.3-.6-.2-1.11-.47-1.53-.84-.42-.36-.71-.75-.88-1.16-.16-.41-.24-1-.24-1.78v-5.96h-1.88v-2.41c.67-.22 1.24-.53 1.72-.93.47-.41.86-.89 1.14-1.46.29-.57.49-1.29.6-2.17z" fill="#fff"/></svg><svg viewBox="0 0 34.01 34.01" id="footerTwitwr" xmlns="http://www.w3.org/2000/svg"><path d="M17 34.01c9.4 0 17.01-7.61 17.01-17.01C34.01 7.61 26.4 0 17 0 7.61 0 0 7.61 0 17c0 9.4 7.61 17.01 17 17.01" fill="#434748"/><path d="M25.54 12.55c-.63.28-1.31.46-2.01.55a3.49 3.49 0 001.53-1.94c-.67.41-1.42.7-2.21.85a3.5 3.5 0 00-2.56-1.1 3.493 3.493 0 00-3.4 4.29 9.945 9.945 0 01-7.2-3.65 3.471 3.471 0 001.08 4.66c-.58-.01-1.11-.17-1.59-.43v.04c0 1.7 1.21 3.11 2.81 3.43-.3.08-.6.12-.92.12-.23 0-.45-.02-.66-.06a3.49 3.49 0 003.26 2.43c-1.19.93-2.7 1.49-4.34 1.49-.28 0-.56-.01-.83-.05 1.55.99 3.38 1.57 5.36 1.57 6.43 0 9.94-5.32 9.94-9.94 0-.15 0-.3-.01-.45a7.34 7.34 0 001.75-1.81" fill="#fff"/></svg><svg viewBox="0 0 34.01 34.01" id="footerV" xmlns="http://www.w3.org/2000/svg"><path d="M17 34.01c9.4 0 17.01-7.61 17.01-17.01C34.01 7.61 26.4 0 17 0 7.61 0 0 7.61 0 17c0 9.4 7.61 17.01 17 17.01" fill="#434748"/><path d="M25.5 13.45c-.08 1.66-1.23 3.92-3.47 6.79-2.31 3-4.27 4.49-5.87 4.49-.99 0-1.83-.91-2.52-2.74-.45-1.68-.91-3.36-1.37-5.03-.51-1.83-1.05-2.75-1.64-2.75-.12 0-.57.27-1.33.81l-.8-1.03c.84-.74 1.66-1.48 2.48-2.21 1.11-.97 1.95-1.48 2.51-1.53 1.32-.13 2.14.78 2.44 2.71.33 2.08.56 3.38.69 3.89.38 1.72.8 2.59 1.26 2.59.35 0 .88-.56 1.6-1.68.71-1.12 1.09-1.97 1.14-2.56.1-.96-.28-1.44-1.14-1.44-.41 0-.83.09-1.26.27.84-2.72 2.44-4.05 4.8-3.97 1.75.05 2.58 1.18 2.48 3.39" fill="#fff"/></svg><svg viewBox="0 0 94 90" id="headerMan" xmlns="http://www.w3.org/2000/svg"><path d="M73.6 67.23c-12.33-4.49-16.27-8.28-16.27-16.39 0-4.87 3.76-3.28 5.42-12.2.68-3.7 4.01-.06 4.64-8.51 0-3.36-1.81-4.2-1.81-4.2s.92-4.98 1.28-8.82C67.31 12.34 64.1 0 46.99 0c-17.1 0-20.31 12.34-19.86 17.11.36 3.84 1.28 8.82 1.28 8.82s-1.81.84-1.81 4.2c.63 8.45 3.96 4.81 4.64 8.51 1.66 8.92 5.42 7.33 5.42 12.2 0 8.11-3.94 11.9-16.27 16.39C8.03 71.74 0 76.34 0 79.47V90h93.99V79.47c0-3.13-8.03-7.73-20.39-12.24"/></svg><svg viewBox="0 0 259 252" id="miniBag" xmlns="http://www.w3.org/2000/svg"><path d="M29.99 69L0 252h258.99l-30-183z" fill="#b3b3b3"/><path d="M159.42 118.47c-12.34 0-23.29 5.9-30.25 15.01-6.96-9.11-17.91-15.01-30.25-15.01-21.05 0-38.11 17.07-38.11 38.11 0 21.05 17.06 38.11 38.11 38.11 12.34 0 23.29-5.9 30.25-15 6.96 9.1 17.91 15 30.25 15 21.05 0 38.11-17.06 38.11-38.11 0-21.04-17.06-38.11-38.11-38.11z" stroke="#fff" stroke-width="12.62" fill="none"/><path d="M177.25 77V54.08C177.25 27.52 155.73 6 129.17 6c-26.55 0-48.08 21.52-48.08 48.08V77" stroke="#b3b3b3" fill="none" stroke-width="12"/></svg><svg viewBox="0 0 19 19" id="search" xmlns="http://www.w3.org/2000/svg"><path fill-rule="evenodd" fill="#fff" d="M15.247 12.136a5.953 5.953 0 000-8.41 5.953 5.953 0 00-8.41 0 5.957 5.957 0 00-.959 7.154l-3.427 3.428a1.552 1.552 0 000 2.195l.02.02a1.551 1.551 0 002.194 0l3.428-3.428a5.956 5.956 0 007.154-.96zm-7.025-1.384a3.993 3.993 0 010-5.641 3.993 3.993 0 015.64 0 3.993 3.993 0 010 5.64 3.993 3.993 0 01-5.64 0z"/></svg></svg>