<svg xmlns="http://www.w3.org/2000/svg" width="259" height="252"><path d="M29.99 69L0 252h258.99l-30-183z" fill="#b3b3b3"/><path d="M159.42 118.47c-12.34 0-23.29 5.9-30.25 15.01-6.96-9.11-17.91-15.01-30.25-15.01-21.05 0-38.11 17.07-38.11 38.11 0 21.05 17.06 38.11 38.11 38.11 12.34 0 23.29-5.9 30.25-15 6.96 9.1 17.91 15 30.25 15 21.05 0 38.11-17.06 38.11-38.11 0-21.04-17.06-38.11-38.11-38.11z" stroke="#fff" fill="none" stroke-width="12.62"/><path d="M177.25 77V54.08C177.25 27.52 155.73 6 129.17 6c-26.55 0-48.08 21.52-48.08 48.08V77" stroke="#b3b3b3" fill="none" stroke-width="12"/></svg>