<svg xmlns="http://www.w3.org/2000/svg" width="25" height="25"><path fill-rule="evenodd" fill="#6b6b6b" d="M12.465 2C6.645 2 1.928 6.7 1.928 12.5c0 4.3 2.594 7.993 6.307 9.617-.03-.733-.006-1.613.183-2.411.203-.852 1.356-5.722 1.356-5.722s-.337-.67-.337-1.66c0-1.557.905-2.719 2.032-2.719.958 0 1.422.717 1.422 1.576 0 .96-.615 2.397-.931 3.727-.264 1.114.56 2.022 1.663 2.022 1.996 0 3.34-2.555 3.34-5.583 0-2.3-1.555-4.023-4.383-4.023-3.196 0-5.187 2.375-5.187 5.028 0 .915.27 1.56.694 2.06.195.229.222.321.151.585-.05.193-.166.658-.214.843-.07.265-.286.36-.528.262-1.472-.599-2.157-2.205-2.157-4.011 0-2.983 2.524-6.56 7.53-6.56 4.023 0 6.67 2.902 6.67 6.016 0 4.119-2.298 7.196-5.685 7.196-1.137 0-2.208-.613-2.574-1.309 0 0-.612 2.419-.741 2.886-.224.81-.661 1.619-1.06 2.25.947.278 1.948.43 2.986.43C18.282 23 23 18.3 23 12.5S18.282 2 12.465 2z"/></svg>