<svg xmlns="http://www.w3.org/2000/svg" width="23" height="19"><path fill-rule="evenodd" fill="#6b6b6b" d="M21.916 3.17a8.326 8.326 0 01-2.396.658 4.195 4.195 0 001.834-2.315 8.336 8.336 0 01-2.649 1.016 4.161 4.161 0 00-3.045-1.322 4.178 4.178 0 00-4.172 4.185c0 .328.037.647.108.953a11.831 11.831 0 01-8.598-4.372 4.173 4.173 0 00-.565 2.104c0 1.452.736 2.733 1.856 3.483a4.15 4.15 0 01-1.89-.524v.053a4.184 4.184 0 003.346 4.103 4.178 4.178 0 01-1.884.072 4.178 4.178 0 003.897 2.906 8.353 8.353 0 01-6.176 1.732 11.78 11.78 0 006.395 1.88c7.673 0 11.87-6.376 11.87-11.905 0-.182-.005-.362-.013-.541a8.493 8.493 0 002.082-2.167z"/></svg>